<svg xmlns="http://www.w3.org/2000/svg" width="259.0799" height="292.0242" viewBox="0 0 359.0799 392.0242"><defs><style>.cls-1{fill:#ffd394;}.cls-2{fill:#f9a826;}.cls-3{fill:#fff;}.cls-4{fill:#3f3d56;}.cls-5{fill:#e6e6e6;}.cls-6{fill:#cacaca;}</style></defs><g id="Layer_2" data-name="Layer 2"><g id="Layer_1-2" data-name="Layer 1"><path class="cls-1" d="M358.0149,154.9211c4.8234,30.4019-7.79,61.9509-16.7552,94.6712-8.6187,32.7491-13.2425,66.6985-29.8971,94.269-17.0008,27.5416-46.0382,48.357-77.4969,48.1616-31.4645-.5428-65.356-22.4437-96.41-39.9462-30.8833-17.6618-58.9286-30.9251-83.1166-51.3233S9.65,252.9813,2.7789,224.1427c-6.7013-28.9978.0452-59.9956,6.2524-92.2522C14.8924,99.605,20.2084,65.7134,37.9359,40.3133,55.8394,15.1013,86.1543-1.6193,117.4658.1246s63.4379,21.4167,95.4724,35.5329,63.9656,21.981,91.0643,40.7144S353.1915,124.5192,358.0149,154.9211Z"/><circle class="cls-2" cx="260.4704" cy="86.8298" r="15.8895"/><path class="cls-3" d="M258.402,95.125a1.7672,1.7672,0,0,1-1.4222-.69l-4.4039-5.7275a1.7675,1.7675,0,0,1,2.8024-2.1546L258.2594,90.3l7.1525-11.0124a1.7675,1.7675,0,0,1,2.9646,1.9255L259.8633,94.32a1.7682,1.7682,0,0,1-1.4121.8035Z"/><path class="cls-4" d="M223.67,143.4683,198.3512,75.6l.6186-.2308-4.6564-12.4828-.6186.231L185.9209,42.28a6.3251,6.3251,0,0,0-8.137-3.7156h0l-44.102,16.4524a6.3254,6.3254,0,0,0-3.7158,8.1371v0l5.42,14.5292-.9772.39,3.4526,8.6545.7823-.3121.7184,1.9257-.8325.3322,3.4526,8.6545.6375-.2544,25.095,67.2686a6.3138,6.3138,0,0,0,8.1154,3.724l.0219-.0082,44.1018-16.4524A6.3331,6.3331,0,0,0,223.67,143.4683Z"/><path class="cls-3" d="M173.4958,165.84a3.0371,3.0371,0,0,1-2.8744-1.9731L132.4743,61.61a3.031,3.031,0,0,1,1.78-3.899l9.3835-3.5006-.01.33a3.4936,3.4936,0,0,0,4.7129,3.379l20.8249-7.7688a3.5382,3.5382,0,0,0,1.9611-2.5245,3.4647,3.4647,0,0,0-.862-3.0226l-.2237-.2428,9.6927-3.6161a3.0351,3.0351,0,0,1,3.8992,1.7807l36.3958,97.5608a8.0518,8.0518,0,0,1-4.7245,10.346L174.5207,165.647A3.0366,3.0366,0,0,1,173.4958,165.84Z"/><circle class="cls-2" cx="168.8699" cy="81.0614" r="11.98"/><path class="cls-5" d="M198.763,98.126l-41.3055,15.4093a1.0479,1.0479,0,1,1-.7365-1.9622l.0039-.0015,41.3056-15.4092a1.0479,1.0479,0,0,1,.7325,1.9636Z"/><path class="cls-5" d="M186.5569,107.7285,172.97,112.797a1.0479,1.0479,0,0,1-.736-1.9624l.0034-.0013,13.5865-5.0686a1.048,1.048,0,0,1,.7326,1.9638Z"/><path class="cls-5" d="M189.9108,116.7187l-13.5866,5.0685a1.048,1.048,0,1,1-.7361-1.9624l.0035-.0013,13.5866-5.0686a1.048,1.048,0,0,1,.7326,1.9637Z"/><path class="cls-5" d="M191.6285,121.3233l-13.5865,5.0686a1.0479,1.0479,0,0,1-.7365-1.9622l.004-.0014L190.896,119.36a1.0479,1.0479,0,0,1,.7365,1.9622l-.004.0014Z"/><path class="cls-5" d="M195.83,109.3179,167.004,120.0716a1.0479,1.0479,0,0,1-.7365-1.9621l.004-.0015,28.8261-10.7537a1.0479,1.0479,0,0,1,.7365,1.9621Z"/><path class="cls-2" d="M190.2767,132.5676l-4.9332,1.84a1.782,1.782,0,0,1-1.2457-3.3391l4.9332-1.84a1.782,1.782,0,0,1,1.2457,3.3391Z"/><circle class="cls-3" cx="150.2825" cy="53.7741" r="0.6891"/><path class="cls-3" d="M298.9492,244.129a9.8732,9.8732,0,0,1,4.1653-5.8675c.2059-.1348-.0142-.4472-.22-.3126a10.27,10.27,0,0,0-4.322,6.1145c-.0589.2392.3179.3035.3765.0656Z"/><path class="cls-4" d="M338.1318,184.0748,325.551,205.8356l.4911.2515-4.2491,8.2956-.9108-.4684-2.8,4.8393.7147.4-4.5618,8.1219-.8131-.4562-41.05,71.0108a8.1081,8.1081,0,0,1-11.0668,2.9593l-78.4416-45.3454a8.1071,8.1071,0,0,1-2.9593-11.0668l65.76-113.755a8.1082,8.1082,0,0,1,11.0668-2.9593l78.4417,45.3455A8.1112,8.1112,0,0,1,338.1318,184.0748Z"/><path class="cls-3" d="M264.0287,296.3958l-78.718-45.5048a2.5,2.5,0,0,1-.9121-3.4114l66.1962-114.5117a2.5,2.5,0,0,1,3.4114-.9121l78.718,45.5048a2.5,2.5,0,0,1,.9121,3.4114L267.44,295.4837A2.5,2.5,0,0,1,264.0287,296.3958Z"/><circle class="cls-3" cx="294.4119" cy="152.3092" r="0.6891"/><path class="cls-5" d="M291.1327,234.4981l-65.71-37.9851a1.8041,1.8041,0,0,1,1.7931-3.1311l.0127.0073,65.71,37.9851a1.8041,1.8041,0,0,1-1.7958,3.13Z"/><path class="cls-5" d="M265.0088,228.8034,243.395,216.309a1.8041,1.8041,0,1,1,1.8022-3.126l.0036.0021L266.8146,225.68a1.8041,1.8041,0,0,1-1.8058,3.1239Z"/><path class="cls-5" d="M256.7413,243.1052l-21.6138-12.4943a1.8042,1.8042,0,0,1,1.8058-3.124l21.6138,12.4944a1.8042,1.8042,0,0,1-1.8022,3.1261Z"/><path class="cls-5" d="M252.5068,250.43,230.893,237.9361a1.8041,1.8041,0,0,1,1.8058-3.1239h0l21.6137,12.4944a1.8041,1.8041,0,1,1-1.7958,3.13l-.01-.0057Z"/><path class="cls-5" d="M273.0547,242.8612l-45.8572-26.5088a1.8041,1.8041,0,0,1,1.8058-3.1238l45.8572,26.5088a1.8041,1.8041,0,1,1-1.7958,3.1295Z"/><path class="cls-2" d="M264.7908,277.5415l-7.8478-4.5367a3.0678,3.0678,0,0,1,3.0707-5.312l7.8478,4.5367a3.0678,3.0678,0,1,1-3.0707,5.312Z"/><circle class="cls-2" cx="278.2363" cy="186.2188" r="15.9734"/><path class="cls-6" d="M17.1438,254.2644l216.1487-2.592-1.5006-125.137a3.5409,3.5409,0,0,0-3.579-3.494L19.1373,125.5486a3.5407,3.5407,0,0,0-3.4941,3.5789Z"/><rect class="cls-3" x="23.0206" y="129.182" width="202.8068" height="115.1371" transform="translate(-2.2304 1.5054) rotate(-0.687)"/><path class="cls-4" d="M16.9151,250.8805l.1851,15.442a4.8751,4.8751,0,0,0,4.9332,4.8164h0l79.7788-.9567.3655,30.4753-1.06.0127a.6332.6332,0,0,0-.6257.6407v0l.0254,2.12a.6333.6333,0,0,0,.6408.6256h0l49.5256-.5939a.6333.6333,0,0,0,.6257-.6407v0l-.0254-2.12a.6333.6333,0,0,0-.6408-.6256h0l-1.06.0127-.3655-30.4753,79.7788-.9566a4.8751,4.8751,0,0,0,4.8163-4.9333h0l-.1852-15.442Z"/><path class="cls-5" d="M196.2474,166.8256l-96.0346,1.1516a2.2829,2.2829,0,1,1-.0548-4.5654l96.0347-1.1516a2.2829,2.2829,0,0,1,.0547,4.5654Z"/><path class="cls-5" d="M164.1479,177.5165l-31.5885.3788a2.283,2.283,0,0,1-.0548-4.5656l31.5885-.3788a2.283,2.283,0,1,1,.0548,4.5656Z"/><path class="cls-5" d="M164.3985,198.4185l-31.5885.3788a2.283,2.283,0,1,1-.0547-4.5656l31.5885-.3788a2.283,2.283,0,0,1,.0547,4.5656Z"/><path class="cls-5" d="M164.5269,209.1243l-31.5885.3788a2.2829,2.2829,0,0,1-.0642-4.5653l.01,0,31.5884-.3788a2.2829,2.2829,0,1,1,.0642,4.5653Z"/><path class="cls-5" d="M181.9872,187.6084l-67.02.8037a2.2829,2.2829,0,0,1-.0547-4.5654l67.02-.8037a2.2829,2.2829,0,1,1,.0547,4.5654Z"/><path class="cls-2" d="M195.414,230.6766l-11.47.1375a3.882,3.882,0,0,1-.0931-7.7634h0l11.47-.1375a3.882,3.882,0,0,1,.0931,7.7634Z"/><circle class="cls-2" cx="70.2024" cy="184.0327" r="19.9667"/><circle class="cls-3" cx="123.6014" cy="125.9892" r="0.7525"/></g></g></svg>