<svg xmlns="http://www.w3.org/2000/svg" width="200.7473" height="200.7756" viewBox="0 0 393.7473 391.7756"><defs><style>.cls-1{fill:#86cff3;}.cls-2{fill:#e6e6e6;}.cls-3{fill:#fff;}.cls-4{fill:#00b0ff;}.cls-5{isolation:isolate;opacity:0.2;}.cls-6{fill:#3f3d56;}.cls-7{fill:#ccc;}.cls-8{fill:#ffb7b7;}.cls-9{fill:#2f2e41;}</style></defs><g id="Layer_2" data-name="Layer 2"><g id="Layer_1-2" data-name="Layer 1"><path class="cls-1" d="M32.1741,158.1354C31.8435,95.186-9.7854,29.2,2.15,8.1165s77.6337,2.9907,121.37,25.7488,65.97,43.8445,93.1159,59.897c27.3756,15.8746,59.664,26.7152,98.7608,59.5963,39.065,33.3136,84.9383,88.6677,77.5628,124.1563-6.9487,35.5653-67.3438,51.0106-120.2786,70.8639-52.7055,19.6755-97.7532,44.0136-150.0422,43.3848s-111.59-26.4022-121.002-68.8511S32.7341,220.9069,32.1741,158.1354Z"/><circle class="cls-2" cx="155.4209" cy="192.467" r="109.6056"/><path class="cls-3" d="M249.7043,194.7783a94.1808,94.1808,0,0,1-39.91,74.7538c-.8044.5718-1.6238,1.128-2.4479,1.6687A94.3277,94.3277,0,0,1,99.7,268.5619c-.7966-.58-1.5877-1.1761-2.3631-1.7866a94.3218,94.3218,0,0,1,3.7108-151.3734c.8044-.5718,1.6238-1.128,2.4479-1.6687a94.3277,94.3277,0,0,1,107.6462,2.6389c.7966.5805,1.5877,1.1761,2.3631,1.7866A94.1811,94.1811,0,0,1,249.7043,194.7783Z"/><circle class="cls-4" cx="155.4209" cy="192.467" r="86.1551"/><path class="cls-5" d="M157.7511,106.5841c-1.3057-.032-2.6041-.03-3.897-.0039a86.1524,86.1524,0,0,1-7.86,171.745c2.4806.2767,4.992.455,7.5339.5173a86.1551,86.1551,0,1,0,4.2228-172.2584Z"/><path class="cls-3" d="M157.937,100.2284a2.8088,2.8088,0,0,0-2.8717,2.7343l-.3,12.2313a2.8038,2.8038,0,1,0,5.606.1375l.3-12.2314A2.8088,2.8088,0,0,0,157.937,100.2284Z"/><path class="cls-3" d="M213.5049,118.1587c-.7754-.6105-1.5665-1.2061-2.3631-1.7866a2.8023,2.8023,0,0,0-2.5271,1.1568l-7.133,9.9374a2.8032,2.8032,0,1,0,4.5553,3.2682l7.133-9.9373A2.7858,2.7858,0,0,0,213.5049,118.1587Z"/><path class="cls-3" d="M243.657,165.0073a2.8,2.8,0,0,0-3.6095-1.6293l-.0018.0007-11.4472,4.3242a2.8036,2.8036,0,0,0,1.9826,5.245h0l11.4472-4.3242A2.81,2.81,0,0,0,243.657,165.0073Z"/><path class="cls-3" d="M112.6,125.2874l-6.6375-10.2749a2.8022,2.8022,0,0,0-2.4674-1.2793c-.824.5407-1.6434,1.0969-2.4478,1.6687a2.7859,2.7859,0,0,0,.2052,2.6517l6.6375,10.2749a2.8032,2.8032,0,1,0,4.71-3.0411Z"/><path class="cls-3" d="M83.5446,164.147l-11.2215-4.88a2.8035,2.8035,0,1,0-2.2373,5.1414l11.2216,4.88a2.8036,2.8036,0,1,0,2.2372-5.1416Z"/><path class="cls-3" d="M153.8516,266.8808a2.8087,2.8087,0,0,0-2.8717,2.7343l-.3,12.2313a2.8038,2.8038,0,1,0,5.606.1375l.3-12.2314A2.8087,2.8087,0,0,0,153.8516,266.8808Z"/><path class="cls-3" d="M209.5888,266.8805l-6.6375-10.275a2.8032,2.8032,0,0,0-4.71,3.0411l6.6375,10.275a2.8023,2.8023,0,0,0,2.4674,1.2793c.8241-.5408,1.6434-1.0969,2.4479-1.6688A2.7858,2.7858,0,0,0,209.5888,266.8805Z"/><path class="cls-3" d="M240.7559,220.5254l-11.2215-4.88a2.8036,2.8036,0,0,0-2.2373,5.1415h0l11.2216,4.88a2.8036,2.8036,0,1,0,2.2372-5.1415Z"/><path class="cls-3" d="M108.7165,253.556a2.8037,2.8037,0,0,0-3.9117.6435l-7.133,9.9374a2.7856,2.7856,0,0,0-.335,2.6384c.7755.6105,1.5666,1.2062,2.3632,1.7866a2.802,2.802,0,0,0,2.5271-1.1568l7.133-9.9374a2.803,2.803,0,0,0-.6433-3.9115Z"/><path class="cls-3" d="M83.872,213.6147a2.8,2.8,0,0,0-3.6095-1.6292l-.0018.0007L68.8135,216.31a2.8036,2.8036,0,1,0,1.9826,5.245l11.4472-4.3242A2.81,2.81,0,0,0,83.872,213.6147Z"/><path class="cls-6" d="M159.3467,191.1716a5.8693,5.8693,0,0,1-4.9608,6.6431l-49.9474,7.2413a5.8626,5.8626,0,0,1-1.6823-11.6039l49.9474-7.2413A5.8693,5.8693,0,0,1,159.3467,191.1716Z"/><path class="cls-6" d="M210.3457,247.5628a3.8276,3.8276,0,0,1-5.406-.1112l-52.242-54.437a3.8234,3.8234,0,1,1,5.5172-5.2948l52.2421,54.437A3.8277,3.8277,0,0,1,210.3457,247.5628Z"/><circle class="cls-7" cx="155.4209" cy="192.467" r="6.6273"/><path class="cls-2" d="M112.602,76.4646c-10.5617,15.7393-26.3387,25.97-45.6457,32.4714a3.5987,3.5987,0,0,1-5.0183-.8463h0c-10.0544-14.1336-7.221-33.9116,6.7576-44.18a31.6421,31.6421,0,0,1,44.2282,6.8051q.1243.17.2465.3408l.2781.391A3.5986,3.5986,0,0,1,112.602,76.4646Z"/><path class="cls-2" d="M203.57,73.2714a31.642,31.642,0,0,1,44.443-5.2209q.1651.13.3283.2628c13.4587,10.9413,15.32,30.8344,4.5848,44.4583h0a3.5987,3.5987,0,0,1-5.0538.5995v0c-17.5979-7.2368-31.8774-19.3636-44-34.669a3.5986,3.5986,0,0,1-.5994-5.0538Z"/><path class="cls-2" d="M193.836,288.3956a2.8088,2.8088,0,0,0-1.1708,3.7885l15.4683,29.3047a2.8038,2.8038,0,0,0,4.9592-2.6177l-15.4683-29.3047A2.8087,2.8087,0,0,0,193.836,288.3956Z"/><path class="cls-2" d="M108.51,287.3818,91.6245,315.8933a2.8039,2.8039,0,0,0,4.8251,2.8576l16.8856-28.5116a2.8039,2.8039,0,1,0-4.8251-2.8575Z"/><circle class="cls-2" cx="211.4407" cy="320.3071" r="8.6665"/><circle class="cls-2" cx="222.9912" cy="98.7635" r="8.6665"/><circle class="cls-2" cx="94.5868" cy="94.5958" r="8.6665"/><circle class="cls-2" cx="94.7331" cy="317.446" r="8.6665"/><path class="cls-8" d="M206.5458,242.594a4.3415,4.3415,0,0,0,6.5791,1.0164l13.4163,7.6178-.5334-8-12.6586-6.0075a4.365,4.365,0,0,0-6.8034,5.3729Z"/><path class="cls-6" d="M216.383,245.6224l5.5078-7.2233,25.368,12.7619,32.0846-5.2095a10.946,10.946,0,0,1,12.6971,11.052h0a10.9576,10.9576,0,0,1-11.191,10.6948l-36.6021-.8293Z"/><polygon class="cls-8" points="205.064 372.437 199.737 369.727 207.694 347.379 215.555 351.379 205.064 372.437"/><path class="cls-8" d="M241.29,369.6909c-.398.2359-.7959.4678-1.1977.7-.8.4637-1.6072.9193-2.4145,1.367-.4056.2238-.8152.4475-1.2207.6674l0,.0118-.0238.0033-.008.0038-.6135.1355-.8183-2.3336-.3777-1.0749-.5332-1.5225-.9776-2.7853-5.1471-14.6653,8.6076-1.9006.2886,1.3184.004,0,.1424.6531,2.6921,12.1966.5489,2.4935.018.0757.3319,1.49.2853,1.2905.3172,1.442Z"/><path class="cls-9" d="M293.58,319.9144c-.5638.8577-1.1394,1.7112-1.7187,2.5567q-1.6147,2.3612-3.311,4.649c0,.004-.0041.0039-.0081.0078a11.1833,11.1833,0,0,1-2.136,1.4807c-.0323.023-.0683.038-.1.057a7.7373,7.7373,0,0,1-1.7832.6654c-.2231.05-.45.1-.6732.15-.8045.17-1.6.3134-2.3917.4366-1.4077.2151-2.7978.3592-4.1783.4363-.1112.0092-.2222.0144-.3333.02a64.4381,64.4381,0,0,1-16.9046-1.7653c-2.8295-.6082-5.7159-1.3247-8.7045-2.0675-.9765-.2458-1.957-.4877-2.9494-.73-.0748-.0177-.1535-.0394-.2324-.0572-1.4176-.3477-2.8591-.6921-4.3364-1.0334-1.8593-.43-3.7784-.8493-5.7731-1.2508l.0733,2.8265a21.25,21.25,0,0,0,1.1827,6.38,10.9575,10.9575,0,0,1-.108,8.606l-.7378,1.9785a6.817,6.817,0,0,1-.8486,6.0128l-.1437.2065,5.3885,14.6752.3491.9515-2.9417-.0721-3.6189-.0848-6.1329-.15-8.4137-17.97-.4029-.8577.0011-.0435,1.7509-34.0946c.0193-.3006.05-.6049.0975-.9048a10.3754,10.3754,0,0,1,4.1185-6.8873,9.9923,9.9923,0,0,1,7.4894-1.8527l3.0192.4662,6.1687.9515,4.3453.673.0868.014,12.8149,1.978,1.0148-3.7387.1717-.0591,5.461-1.851,18.8876-6.4025.0478-.0146,1.2424-.4212.1407.2411c.0418.0724.0836.1447.1214.217a36.7018,36.7018,0,0,1,2.7893,6.9378,107.8161,107.8161,0,0,1,2.8172,11.9421q.047.2627.0833.4775l.0109.0438c.01.0676.017.1114.0207.1233A11.077,11.077,0,0,1,293.58,319.9144Z"/><path class="cls-9" d="M294.6785,307.3607c-.0532-.2549-.1221-.514-.1952-.7654a54.1882,54.1882,0,0,0-2.0573-5.6047c-.8839-2.0817-1.95-4.3145-3.2261-6.7346q-.9255-1.758-1.9941-3.6579-.5353-.9521-1.1132-1.9408a.992.992,0,0,0-.0494-.0884l-.11-.1928-18.5822,2.0244-6.92.7535-.496,3.4265-.12.8488c-.0039,0-.0039,0,0,.004l-.334,2.3133,0,.004-.4433,3.0554-.0316-.0047-10.2021-1.5773L238.29,297.6l-5.6478-.8713a9.9855,9.9855,0,0,0-7.4893,1.8527,10.3805,10.3805,0,0,0-4.1186,6.8873c-.0424.2763-.0732.5607-.092.8416l-5.6555,12.5346a81.74,81.74,0,0,0-6.6245,23.6233l-4.2269,12.4349.557.0652,8.2876.9757,2.1883.26,5.0032-6.933c.57-.79,1.1129-1.6049,1.6207-2.44a37.6629,37.6629,0,0,0,2.2393-4.24l11.058-24.608q1.2064.2378,2.39.4548,5.4715,1.0255,10.5118,1.7116a124.3172,124.3172,0,0,0,28.88.9892q3.568-.3462,6.9052-.9716,1.2237-.2256,2.4167-.4915c.1872-.0389.37-.078.5537-.1211a10.1069,10.1069,0,0,0,7.2292-6.4308A10.3126,10.3126,0,0,0,294.6785,307.3607Z"/><path class="cls-9" d="M206.8759,368.8005l-5.7634-2.9383-.9038-.4618-1.5489,3.5512-10.2541,1.9949a2.4208,2.4208,0,0,0-.5088,4.5949l9.8658,4.31,3.2332-2.7692-.87,3.8017,3.7158,1.6242,4.4346-12.9924Z"/><polygon class="cls-9" points="242.852 364.154 243.202 365.106 242.829 365.097 242.852 364.154"/><path class="cls-9" d="M240.7932,365.2483l-6.1628,1.9674-.9672.3078,1.3981,3.6133-5.8826,8.6325a2.4207,2.4207,0,0,0,2.8715,3.623l10.0433-3.8788.349-4.2427,2.057,3.3133,3.7832-1.46-5.9906-12.3524Z"/><path class="cls-6" d="M293.0139,313.06a2.2456,2.2456,0,0,1-1.0349-.2839l-31.8341-17.64-.3352-1.5346-.5839-4.8443.0108-.0451,3.4134-14.0638c-.0532-.1228-.1658-.3248-.2929-.553-1.3123-2.3533-5.3059-9.5158,2.8846-19.0423l14.3608-15.9354,11.9957-.2219.1322.1756a31.2207,31.2207,0,0,1,4.5947,29.1228l-1.8,22.5041,1.2267,4.5837a12.5609,12.5609,0,0,1-.567,8.1169l.1262,7.3764a2.2519,2.2519,0,0,1-2.218,2.2854q-.04.0006-.079,0Z"/><path class="cls-8" d="M264.5861,330.9582a4.3415,4.3415,0,0,0,1.2447-6.54l8.08-13.1433-8.0132.2549-6.4443,12.442a4.365,4.365,0,0,0,5.133,6.9861Z"/><path class="cls-6" d="M267.9549,321.2323l-7.0274-5.7557,13.6366-24.9087-4.09-32.2464a10.9457,10.9457,0,0,1,11.4871-12.305h0A10.9575,10.9575,0,0,1,292.26,257.5726l-2.102,36.5512Z"/><path id="f4e08e8b-ef08-4d70-8ad3-b81af8a71ff9-2848" class="cls-9" d="M272.082,232.1646l.2907-11.8577a15.8938,15.8938,0,0,1,31.7786.7586h0l0,.0205c2.6574,5.9043.8374,8.6358-.2906,11.8576a2.1377,2.1377,0,0,1-2.1858,2.0811l-27.51-.6744A2.1375,2.1375,0,0,1,272.082,232.1646Z"/><circle class="cls-8" cx="283.0196" cy="221.8957" r="11.8971" transform="translate(12.7583 459.1649) rotate(-79.3782)"/><path class="cls-9" d="M295.39,225.3188c-.1074-.02-.2145-.045-.3219-.0647-1.8472-.3745-3.6945-.7433-5.5358-1.1235l-.0675-4.1967-2.333,3.7008c-5.1533,1.571-9.9125.495-14.36-1.7315a40.6533,40.6533,0,0,1-4.2535-2.4828,15.766,15.766,0,0,1,8.0177-10.9641c.1725-.0923.3391-.1734.5114-.2544l.0058-.0053v0c.2927-.1291.5909-.2523.8889-.3642a13.105,13.105,0,0,1,13.687,3.0036A15.6561,15.6561,0,0,1,295.39,225.3188Z"/></g></g></svg>