<svg xmlns="http://www.w3.org/2000/svg" width="200.7856" height="200.4942" viewBox="0 0 367.7856 367.4942"><defs><style>.cls-1{fill:#9bb0db;}.cls-2{fill:#f2f2f2;}.cls-3{fill:#fff;}.cls-4{fill:#ccc;}.cls-5{fill:#6c63ff;}.cls-6{fill:#3f3d56;}.cls-7{fill:#a0616a;}.cls-8{fill:#2f2e41;}.cls-9{fill:#e6e6e6;}</style></defs><g id="Layer_2" data-name="Layer 2"><g id="Layer_1-2" data-name="Layer 1"><path class="cls-1" d="M249.711,6.3367c31.7437,6.4279,67.5981,17.8,90.6637,43.2642,22.8372,25.4641,32.6572,64.7727,24.6642,99.3841-7.993,34.3641-33.7991,63.7838-57.7781,87.27S261.13,277.047,237.6073,299.5444c-23.5223,22.7446-48.6433,50.9282-79.4735,62.0533-31.0586,11.3723-68.2832,6.1806-94.7744-14.5863-26.72-20.7668-43.1623-56.8615-50.927-91.72C4.6678,220.68,5.1245,187.3047,2.8408,152.4461S-4.6955,81.4928,9.692,58.9954c14.3874-22.25,48.6432-30.903,77.6465-38.8141C116.3417,12.0229,140.0924,4.6062,165.67,1.64,191.2478-1.5744,218.1957-.0911,249.711,6.3367Z"/><path class="cls-2" d="M344.07,199.5127H51.88a7.5317,7.5317,0,0,1-7.5231-7.5232V11.8193a5.5179,5.5179,0,0,1,5.5115-5.5117h296.118a5.6133,5.6133,0,0,1,5.6069,5.607V191.99A7.5317,7.5317,0,0,1,344.07,199.5127Z"/><path class="cls-3" d="M333.4111,188.8586H61.0976a7.0285,7.0285,0,0,1-7.2393-6.7791V25.1849a5.21,5.21,0,0,1,5.3645-5.0277H335.1971a5.2965,5.2965,0,0,1,5.4535,5.1106V182.08A7.0287,7.0287,0,0,1,333.4111,188.8586Z"/><path class="cls-4" d="M351.4884,11.389H44.2512v-3.83A7.5568,7.5568,0,0,1,51.8017.0129H343.9379a7.5568,7.5568,0,0,1,7.5505,7.5459Z"/><circle class="cls-3" cx="57.9732" cy="5.7123" r="1.953"/><circle class="cls-3" cx="65.3864" cy="5.7123" r="1.953"/><circle class="cls-3" cx="72.7996" cy="5.7123" r="1.953"/><path class="cls-4" d="M303.4377,162.5449H92.4067a7.9883,7.9883,0,0,1-7.9792-7.9791V52.8189a5.9745,5.9745,0,0,1,5.9675-5.9677H305.354a6.07,6.07,0,0,1,6.0628,6.063V154.5658A7.9881,7.9881,0,0,1,303.4377,162.5449ZM90.395,47.7631a5.0614,5.0614,0,0,0-5.0556,5.0558V154.5658a7.0752,7.0752,0,0,0,7.0673,7.0672h211.031a7.0752,7.0752,0,0,0,7.0672-7.0672V52.9142a5.1569,5.1569,0,0,0-5.1509-5.1511Z"/><path class="cls-2" d="M99.7019,154.5658H296.1425a7.2952,7.2952,0,0,0,7.2952-7.2952V62.2142a7.2952,7.2952,0,0,0-7.2952-7.2952H99.7019a7.2951,7.2951,0,0,0-7.2952,7.2952v85.0564A7.2952,7.2952,0,0,0,99.7019,154.5658Z"/><circle class="cls-4" cx="122.0066" cy="75.5616" r="4.1035"/><circle class="cls-4" cx="122.0066" cy="91.0639" r="4.1035"/><circle class="cls-4" cx="122.0066" cy="106.5662" r="4.1035"/><circle class="cls-4" cx="122.0066" cy="122.0685" r="4.1035"/><path class="cls-4" d="M277.4854,76.0175H142.5243a.456.456,0,0,1,0-.9119H277.4854a.456.456,0,0,1,0,.9119Z"/><path class="cls-4" d="M277.4854,91.52H142.5243a.456.456,0,0,1,0-.9119H277.4854a.456.456,0,0,1,0,.9119Z"/><path class="cls-4" d="M277.4854,107.0221H142.5243a.456.456,0,0,1,0-.9119H277.4854a.456.456,0,0,1,0,.9119Z"/><path class="cls-4" d="M277.4854,122.5244H142.5243a.456.456,0,0,1,0-.9119H277.4854a.456.456,0,0,1,0,.9119Z"/><path class="cls-5" d="M168.0575,138.0267H154.835a2.2825,2.2825,0,0,1-2.28-2.28V123.4363a2.2823,2.2823,0,0,1,2.28-2.28h13.2225a2.2823,2.2823,0,0,1,2.28,2.28v12.3106A2.2824,2.2824,0,0,1,168.0575,138.0267Z"/><path class="cls-5" d="M197.6942,138.0267H184.4717a2.2824,2.2824,0,0,1-2.28-2.28V107.934a2.2823,2.2823,0,0,1,2.28-2.28h13.2225a2.2823,2.2823,0,0,1,2.28,2.28v27.8129A2.2824,2.2824,0,0,1,197.6942,138.0267Z"/><path class="cls-5" d="M227.7869,138.0267H214.5644a2.2824,2.2824,0,0,1-2.28-2.28V92.4317a2.2824,2.2824,0,0,1,2.28-2.28h13.2225a2.2823,2.2823,0,0,1,2.28,2.28v43.3152A2.2823,2.2823,0,0,1,227.7869,138.0267Z"/><path class="cls-5" d="M258.7915,138.0267H245.5689a2.2823,2.2823,0,0,1-2.28-2.28V77.3854a2.2823,2.2823,0,0,1,2.28-2.28h13.2226a2.2824,2.2824,0,0,1,2.28,2.28v58.3615A2.2823,2.2823,0,0,1,258.7915,138.0267Z"/><path class="cls-6" d="M277.4854,138.0267H142.5243a.456.456,0,0,1,0-.9119H277.4854a.456.456,0,0,1,0,.9119Z"/><polygon class="cls-7" points="197.187 312.447 202.777 312.447 205.436 290.886 197.186 290.886 197.187 312.447"/><path class="cls-8" d="M195.7612,310.6224l11.0083,0h.0005a7.0152,7.0152,0,0,1,7.0154,7.015v.2283l-18.0239.0007Z"/><polygon class="cls-7" points="174.845 312.447 180.435 312.447 183.094 290.886 174.845 290.886 174.845 312.447"/><path class="cls-8" d="M173.42,310.6224l11.0083,0h.0005a7.0152,7.0152,0,0,1,7.0154,7.015v.2283l-18.0239.0007Z"/><circle class="cls-7" cx="198.3027" cy="151.9796" r="11.1986" transform="translate(16.521 323.3773) rotate(-80.7825)"/><path class="cls-8" d="M205.8334,307.7939H195.46a2.0519,2.0519,0,0,1-2.0517-2.0521l0-.0246.6027-49.2568a.6839.6839,0,0,0-1.3628-.0913L186.6115,305.99a2.0535,2.0535,0,0,1-2.0367,1.8037H174.1019a2.0517,2.0517,0,0,1-2.0518-2.0514q0-.08.0063-.16l6.9156-88.4885.188-.02,33.1151-3.5764L207.883,305.84A2.0494,2.0494,0,0,1,205.8334,307.7939Z"/><path class="cls-6" d="M179.3751,222.526a2.05,2.05,0,0,1-2.0444-1.9872c-.1808-5.5952-.4906-24.9552,3.1105-39.1685a18.6591,18.6591,0,0,1,17.2315-14.061h0a18.7758,18.7758,0,0,1,18.4927,11.8654c6.0529,15.3669,11.7717,34.3084,4.642,37.2792-9.3446,3.8934-33.9789,5.6291-41.3064,6.0681Q179.4377,222.5261,179.3751,222.526Z"/><path class="cls-7" d="M222.1757,140.6611a4.7974,4.7974,0,0,0,.5681.4984l-1.1756,22.5814-4.89,2.5034,2.8136,7.8732,9.0869-3.5905a3.6474,3.6474,0,0,0,2.2915-3.73l-2.38-25.615a4.7859,4.7859,0,1,0-6.3143-.521Z"/><path class="cls-6" d="M221.661,164.5815l3.44,9.775a2.0518,2.0518,0,0,1-1.5453,2.6954l-10.1428,1.9642a5.6982,5.6982,0,0,1-3.7513-10.7613l9.107-4.807a2.0514,2.0514,0,0,1,2.8926,1.1337Z"/><path class="cls-7" d="M173.6687,140.6611a4.8054,4.8054,0,0,1-.5681.4984l1.1756,22.5814,4.89,2.5034-2.8135,7.8732-9.0869-3.5905a3.6476,3.6476,0,0,1-2.2915-3.73l2.3806-25.615a4.7865,4.7865,0,1,1,6.3142-.521Z"/><path class="cls-6" d="M175.37,163.3522a2.05,2.05,0,0,1,1.7059.0956l9.107,4.807a5.6982,5.6982,0,0,1-3.7514,10.7612l-10.1428-1.9641a2.0518,2.0518,0,0,1-1.5452-2.6954l3.44-9.775A2.05,2.05,0,0,1,175.37,163.3522Z"/><path class="cls-8" d="M202.6521,153.8884a7.36,7.36,0,0,1,4.1221-6.9156c3.4041-1.7573,5.5425-5.5057,4.6055-8.9285-1.2-4.3812-7.1624-7.2226-11.9939-5.7152a22.1475,22.1475,0,0,0-3.7665,1.75l-3.1566,1.692a32.72,32.72,0,0,0-3.891,2.297,12.9107,12.9107,0,0,0-5.1387,12.0964c.6216,4.454,3.5385,8.5388,7.5312,11.3353a12.739,12.739,0,0,0,5.1608,2.294,6.8576,6.8576,0,0,0,5.4438-1.2333c2.1868-1.86,1.9609-4.9747,1.2536-7.5762A5.5155,5.5155,0,0,1,202.6521,153.8884Z"/><rect class="cls-9" x="76.6464" y="194.6842" width="0.9933" height="0.1656" transform="translate(-68.1512 43.8537) rotate(-22.3058)"/><circle class="cls-6" cx="76.8716" cy="194.5375" r="1.1589"/></g></g></svg>