<svg xmlns="http://www.w3.org/2000/svg" width="240.9204" height="200.6407" viewBox="0 0 387.9204 341.6407"><defs><style>.cls-1{fill:#8ccd9f;}.cls-2{fill:#00bfa6;}.cls-3{fill:#fff;}.cls-4{fill:#a0616a;}.cls-5{fill:#3f3d56;}.cls-6{fill:#2f2e41;}.cls-7{fill:#ffb8b8;}.cls-8{fill:#e6e6e6;}</style></defs><g id="Layer_2" data-name="Layer 2"><g id="Layer_1-2" data-name="Layer 1"><path class="cls-1" d="M1.6476,191.5487c8.6565-32.82,51.3834-58.3674,80.9313-94.237,29.874-35.8456,46.545-81.6871,75.4878-93.819,28.6166-12.156,69.33,9.5487,109.1432,32.3351,39.487,22.7623,77.899,46.7573,100.2671,83.6728,22.3441,37.2418,28.82,87.2531,7.01,118.2817s-71.9042,43.0744-112.2594,56.4957c-40.2041,13.5964-70.6688,28.5682-105.4138,30.4306S83.2186,315.1729,50.999,289.503C18.6042,263.9842-6.8338,224.2177,1.6476,191.5487Z"/><circle class="cls-2" cx="185.7014" cy="126.0363" r="10.2736"/><path class="cls-3" d="M190.9753,121.7546a.8309.8309,0,0,0-1.147,0,34.0267,34.0267,0,0,0-5.83,5.9548q-.6231-1.2056-1.2461-2.4112c-.48-.9277-1.88-.1081-1.4007.8188q.9114,1.7632,1.8226,3.5267a.8205.8205,0,0,0,1.4007,0,32.85,32.85,0,0,1,6.4-6.7421A.8159.8159,0,0,0,190.9753,121.7546Z"/><path class="cls-4" d="M139.7323,155.1685l-15.4924-24.33,17.94-9.6076,4.7086,18.5626,33.1758,17.9274a7.1733,7.1733,0,1,1-4.0824,9.759Z"/><path class="cls-5" d="M112.9212,101.6573c-4.8678,7.147,12.431,33.1258,12.431,33.1258.8427-1.8165,8.8985,18.5822,10.2479,17.3773,3.8347-3.4248,9.8377-12.9644,13.1745-13.39,1.9083-.2432-4.4257-13.7766-4.4257-13.7766s-2.8947-7.9915-6.8228-18.2A18.3321,18.3321,0,0,0,124.21,95.15S117.7889,94.51,112.9212,101.6573Z"/><polygon class="cls-4" points="113.159 334.509 120.516 334.508 124.017 306.129 113.157 306.129 113.159 334.509"/><path class="cls-6" d="M111.2819,332.1064l2.0709,0,8.0854-3.2881,4.3335,3.2876h.0006a9.2345,9.2345,0,0,1,9.234,9.2339v.3l-23.7241.0009Z"/><polygon class="cls-4" points="147.341 334.509 154.698 334.508 158.199 306.129 147.34 306.129 147.341 334.509"/><path class="cls-6" d="M145.4641,332.1064l2.071,0,8.0853-3.2881,4.3336,3.2876h.0006a9.2345,9.2345,0,0,1,9.234,9.2339v.3l-23.724.0009Z"/><path class="cls-6" d="M150.5257,179.356l-47.8573,1.1964c-9.0891,4.9368-9.2271,15.6217-6.2491,28.3078,0,0-1.0053,7.54,1.0054,9.5509s3.0161,2.0107,2.0107,5.5295,4.3065,9.2659,3.6613,9.9111a26.0049,26.0049,0,0,0-2.1532,4.1639l5.0268,28.6527s3.5187,49.7653,4.5241,50.7707,2.0107,0,1.0054,2.5134-2.0108,1.508-1.0054,2.5134a37.0046,37.0046,0,0,1,2.5134,3.0161h12.1534s.9163-5.0269.9163-5.5295,1.0053-3.5188,1.0053-4.0215-.8885-1.3912-.8885-1.3912a16.5321,16.5321,0,0,1-.62-3.1329c0-1.0053-3.0161-39.7117-3.0161-39.7117l6.0322-50.2679L143.1686,270.69s0,43.2305,1.0053,44.2358,1.0054.5027.5027,2.5134-2.5134,1.5081-1.0053,3.0161,2.0107-1.0053,1.508,1.5081l-.5026,2.5134,15.08.2157s2.0108-4.2372,1.0054-5.7452-.945-1.0964.2815-3.5643,1.7292-2.9706,1.2266-3.4733-.5027-3.1763-.5027-3.1763l-2.5134-48.097s-.5027-50.7707-.5027-52.2787a5.0144,5.0144,0,0,1,.4176-2.2615v-2.0469l-1.9256-7.2532Z"/><circle class="cls-4" cx="121.7772" cy="64.9748" r="14.8695"/><path class="cls-5" d="M129.2119,89.672c3.2035,1.9045,5.12,5.4037,6.22,8.9644a84.9516,84.9516,0,0,1,3.6506,20.2968l1.1619,20.6237,14.39,43.9137c-12.4712,10.5525-59.3487,2.3983-59.3487,2.3983s-1.4389-.48,0-1.9187,2.84-.1641,1.4009-1.6031-.447.1641.0327-1.2749,0-.48-.48-.9593,3.7133-4.7966,3.7133-4.7966l-3.8373-25.2069L91.3186,99.2652c5.756-7.1949,17.3319-11.4362,17.3319-11.4362l2.9911-5.384,14.9554,1.1964Z"/><path class="cls-6" d="M134.0347,57.0748a6.8909,6.8909,0,0,1,2.4481,3.4389,48.4054,48.4054,0,0,0,.0319-6.7474c-.1753-1.5791-1.287-1.9343-2.5743-2.3459-1.1625-.3718-2.4773-.7919-2.831-2.3248-4.6741-4.5471-12.8108-4.3178-18.3794-2.7317-3.0641.8728-4.8272,1.9942-4.9849,2.6511l-.0327.1352-.1245.0623c-2.3619,1.1809-2.8216,4.91-2.7913,7.8305.0576,5.5023,1.9574,11.7514,3.0276,12.2591.0567.0268.071.0163.0955-.0041h0c1.6115-1.2879,3.5777.0978,4.4417.8511a15.465,15.465,0,0,1,13.8474-13.1175,24.2589,24.2589,0,0,0,3.3376-.56,7.0265,7.0265,0,0,1,1.7049-.2237A4.8523,4.8523,0,0,1,134.0347,57.0748Z"/><path class="cls-7" d="M226.3429,191.2044l28.6036-29.0463,7.536-23.231-12.1272-4.9052c-6.0076,6.06-12.1917,24.6107-12.1917,24.6107l-19.5229,26.2022c-.1559.0579-.3113.1192-.4644.1916a5.7785,5.7785,0,1,0,8.1666,6.178Z"/><path class="cls-2" d="M247.0471,136.6794l15.3365,4.4365.0571-.011c5.6373-1.0946,10.0967-10.463,12.8447-18.1294a10.596,10.596,0,0,0-5.74-13.2787h0a10.6194,10.6194,0,0,0-11.0821,1.69l-7.6465,6.5845Z"/><polygon class="cls-7" points="233.926 333.646 225.678 333.645 221.754 301.832 233.927 301.833 233.926 333.646"/><path class="cls-6" d="M236.03,330.9527l-2.3215,0-9.0637-3.6859-4.8579,3.6854h-.0007a10.3519,10.3519,0,0,0-10.3513,10.3512v.3363l26.5946.001Z"/><polygon class="cls-7" points="270.523 333.646 262.275 333.645 258.352 301.832 270.525 301.833 270.523 333.646"/><path class="cls-6" d="M272.6271,330.9527l-2.3216,0-9.0637-3.6859-4.8578,3.6854h-.0007a10.3518,10.3518,0,0,0-10.3513,10.3512v.3363l26.5945.001Z"/><path class="cls-6" d="M283.1,196.6145a87.5523,87.5523,0,0,1-1.4446,22.6325c-2.4077,11.0756-2.4077,42.2679-2.4077,42.2679l-5.297,60.7826-15.891-1.4446L253.7253,219.247l-15.4094,34.19,1.4446,4.8154-1.9243,1.2039s1.4428,9.39.48,9.39-3.3708,1.4446-3.3708,1.4446l1.9261,49.5991-16.3725-.4816L214.72,249.5844l6.26-39.9682.4815-7.7047,2.167.0891,1.1034-3.2192,2.0266-5.5377Z"/><path class="cls-2" d="M283.9319,199.0419l.0858-.12c4.5836-6.4172-2.31-21.8374-3.35-24.0728l4.3793-1.4211-.9861-8.3826-.4673-3.7371,3.3471-3.3471.0094-.0834,1.9262-16.8541,2.8006-11.1943a24.5765,24.5765,0,0,0-6.9756-23.8174l-6.4736-6.1037L270.36,88.267H257.6733l-4.35,8.2168a18.492,18.492,0,0,0-14.3076,18.88l.9859,21.55-3.86,26.832-.0023,4.8559-4.3435,4.8272.9485,4.7423-3.3057,1.4167-1.46,6.8112c-.604.7971-4.5911,6.1134-4.5911,7.5667,0,.2182.161.4291.5067.6631,2.7171,1.84,17.7353,5.5909,24.3822,2.9311,7.08-2.8309,35.2251,1.416,35.5087,1.4592Z"/><circle class="cls-7" cx="262.378" cy="67.7067" r="16.8025"/><path class="cls-6" d="M260.7683,84.7812a45.7029,45.7029,0,0,0,7.7572-.7437c2.5342-.5839,8.1256-4.9074,9.6494-7.4616h0a22.4515,22.4515,0,0,0,2.1825-6.9612,20.4279,20.4279,0,0,0-3.99-16.12,6.4538,6.4538,0,0,0-2.6633-2.1569c-.0943-.0341-.1912-.0639-.289-.0891a7.963,7.963,0,0,1-4.0231-2.348,6.5742,6.5742,0,0,0-.6757-.6605,9.81,9.81,0,0,0-4.144-1.9485c-2.4486-.5881-5.9513.1489-10.4105,2.1921a11.0064,11.0064,0,0,1-6.6434.376.6237.6237,0,0,0-.5819.2163,4.4034,4.4034,0,0,1-2.9612,1.27c-.68.0475-1.3708,1.0092-2.2029,2.2615-.1888.2843-.4092.616-.569.8185l-.032-.38-.3743.4347a5.3438,5.3438,0,0,0,2.6365,8.641,10.4208,10.4208,0,0,0,2.1039.28c.43.0275.8744.056,1.3014.1188a8.0566,8.0566,0,0,1,6.12,5.0719,2.1068,2.1068,0,0,0,3.2055.9405,3.4815,3.4815,0,0,1,3.1561-.6593,2.3115,2.3115,0,0,1,1.0511,1.132,3.0111,3.0111,0,0,0,1.1768,1.3033c1.7493.8455,1.97,4.7856,1.435,8.0886-.5159,3.1839-1.6382,5.5065-2.7292,5.6481-.84.1088-.9346.1711-.9917.3217l-.0511.1347.0979.1223A3.44,3.44,0,0,0,260.7683,84.7812Z"/><path class="cls-7" d="M246.8281,138.4764l-8.0765-10.2908c-8.2268,2.2654-22.8242,15.2766-22.8242,15.2766l-29.9782,13.0093a5.7755,5.7755,0,1,0,3.5087,9.3581l39.2707-10.9558Z"/><path class="cls-2" d="M244.8923,140.8291l12.7437-14.206.7075-10.066a10.62,10.62,0,0,0-5.27-9.8942h0A10.5953,10.5953,0,0,0,238.9971,110c-4.5029,6.7863-9.347,15.9617-6.8545,21.1349l.0252.0524Z"/><path class="cls-8" d="M127.4362,194.2247,94.3149,177.2618c-2.3559-1.2066-3.1363-4.407-1.7395-7.1341l21.5957-42.1671c1.3967-2.7271,4.45-3.9643,6.8056-2.7577l33.1213,16.963c2.3559,1.2066,3.1363,4.4069,1.74,7.1341l-21.5958,42.167C132.8451,194.1942,129.7921,195.4313,127.4362,194.2247Z"/><path class="cls-3" d="M121.7771,186.4267l-22.503-11.5249c-2.2065-1.13-2.9375-4.1273-1.6294-6.6814l17.9414-35.0317c1.3081-2.5541,4.1674-3.7126,6.3739-2.5825l27.179,13.92c2.2065,1.13,2.9373,4.1272,1.6292,6.6813l-9.7467,19.0311C135.1949,181.6151,131.6054,191.46,121.7771,186.4267Z"/><path class="cls-2" d="M132.9031,167.2959,112.9715,157.088a1.2465,1.2465,0,0,1,1.1244-2.1955L134.0275,165.1a1.2466,1.2466,0,0,1-1.1244,2.1955Z"/><path class="cls-2" d="M115.2985,163.7554l-4.5486-2.3295a1.2467,1.2467,0,0,1,1.1245-2.1957l4.5486,2.3295a1.2467,1.2467,0,0,1-1.1245,2.1957Z"/><path class="cls-2" d="M121.133,172.2192l-12.6047-6.4555a1.2466,1.2466,0,0,1,1.1245-2.1956l12.6047,6.4554a1.2467,1.2467,0,0,1-1.1245,2.1957Z"/><path class="cls-2" d="M140.7905,151.8953l-19.9316-10.2079a1.2466,1.2466,0,0,1,1.1245-2.1956L141.9149,149.7a1.2466,1.2466,0,0,1-1.1244,2.1956Z"/><path class="cls-2" d="M123.1859,148.3548l-4.5486-2.33a1.2466,1.2466,0,0,1,1.1245-2.1956l4.5486,2.3295a1.2467,1.2467,0,0,1-1.1245,2.1957Z"/><path class="cls-2" d="M129.02,156.8185l-12.6047-6.4555a1.2466,1.2466,0,0,1,1.1245-2.1956l12.6047,6.4554a1.2467,1.2467,0,0,1-1.1245,2.1957Z"/><path class="cls-4" d="M99.99,157.5142,92.5075,129.658l19.9954-3.7851-1.0753,19.12L137.7,172.045a7.1733,7.1733,0,1,1-6.8213,8.0854Z"/><path class="cls-5" d="M90.4614,98.4254c-6.7871,5.3581,1.9242,35.3291,1.9242,35.3291,1.3487-1.48,2.916,20.3956,4.5646,19.6507,4.6853-2.117,13.273-9.4172,16.5838-8.8221,1.8933.34-.09-14.47-.09-14.47s-.3649-8.4918-1.0506-19.4083a18.332,18.332,0,0,0-9.2105-15.102S97.2485,93.0673,90.4614,98.4254Z"/><path class="cls-8" d="M203.3931,219.3433l-18.0741-8.5348a2.8282,2.8282,0,0,1-1.5518-1.9162,2.77,2.77,0,0,1,.5148-2.36,54.3854,54.3854,0,0,0,10.4968-22.8472,2.81,2.81,0,0,1,2.7535-2.2659c9.2181.0314,16.1074,3.3972,20.4759,10.0029a2.8449,2.8449,0,0,1,.3722,2.366,88.96,88.96,0,0,1-11.4135,24.552A2.8225,2.8225,0,0,1,203.3931,219.3433Z"/><path class="cls-3" d="M208.71,207.3728l-13.82-6.5258a1.4336,1.4336,0,0,1,1.2243-2.5927h0l13.82,6.5258a1.4336,1.4336,0,1,1-1.2243,2.5927Z"/><path class="cls-3" d="M210.8568,202.8264l-13.82-6.5257a1.4336,1.4336,0,1,1,1.2243-2.5927h0l13.82,6.5257a1.4337,1.4337,0,0,1-1.2243,2.5928h0Z"/></g></g></svg>