<svg xmlns="http://www.w3.org/2000/svg" width="226.5221" height="238.1177" viewBox="0 0 326.5221 338.1177"><defs><style>.cls-1{fill:#eba2c7;}.cls-2{fill:#2f2e41;}.cls-3{fill:#ffb8b8;}.cls-4{fill:#3f3d56;}.cls-5{fill:#f50057;}.cls-6{fill:#e6e6e6;}.cls-7{fill:#ccc;}.cls-8{fill:#fff;}.cls-9{fill:#f2f2f2;}</style></defs><g id="Layer_2" data-name="Layer 2"><g id="Layer_1-2" data-name="Layer 1"><path class="cls-1" d="M15.4971,77.9361C34.27,36.5471,70.687,2.0215,108.9458.0867S187.3526,29.0255,224.7834,48.43s72.1914,27.5577,86.8932,49.1662c14.4846,21.6556,8.693,56.8137-.9324,86.8885-9.6726,29.8576-23.4433,54.4616-42.7034,82.0775-19.4774,27.663-44.4912,58.1206-77.6041,68.0391-32.9427,9.6541-73.9845-1.2309-107.9472-24.5737C48.5739,286.9022,21.473,251.1487,8.5342,209.3631-4.2345,167.313-3.2758,119.3251,15.4971,77.9361Z"/><path class="cls-2" d="M264.4786,157.1994l.9056-7.2589a9.8024,9.8024,0,1,1,19.454,2.427l-.9056,7.259a1.3182,1.3182,0,0,1-1.47,1.1436l-16.8408-2.101A1.3183,1.3183,0,0,1,264.4786,157.1994Z"/><circle class="cls-3" cx="272.5455" cy="152.1783" r="7.1868"/><path class="cls-2" d="M263.0106,150.2341a7.7628,7.7628,0,0,1,8.6545-6.7345l1.4518.1811a7.7629,7.7629,0,0,1,6.7345,8.6544l-.0181.1452-3.0682-.3828-.6808-3.0608-.5749,2.9042-1.5856-.1978-.3435-1.5444-.29,1.4653-10.2977-1.2847Z"/><path class="cls-3" d="M237.3952,177.8149a3.31,3.31,0,0,0,4.9472,1.1376l6.5275,3.8239,3.2913-3.4-9.2941-5.27a3.3285,3.3285,0,0,0-5.4719,3.7091Z"/><path class="cls-4" d="M258.7891,184.6859c-4.8149,0-13.2876-2.1555-13.7568-2.2759l-.1481-.0379,1.3335-6.7516,12.9412,2.5561,7.03-9.9,8.0716-.82-.2253.2964c-.1049.1382-10.51,13.835-12.1289,16.1327C261.4982,184.4646,260.331,184.6859,258.7891,184.6859Z"/><path class="cls-4" d="M260.08,210.0259l-.1926-.092a15.7376,15.7376,0,0,1-6.2506-5.8938c-2.1088-3.8661,7.7628-20.2662,8.4533-21.4041l.01-5.2082,3.5511-9.5877,4.5288-2.56-3.8883,9.0726Z"/><polygon class="cls-3" points="255.543 266.004 251.215 266.004 249.155 249.309 255.544 249.309 255.543 266.004"/><path class="cls-2" d="M256.6467,270.1994l-13.9563-.0005v-.1765a5.4325,5.4325,0,0,1,5.4322-5.4321h0l8.524,0Z"/><polygon class="cls-3" points="302.034 262.211 297.921 263.558 290.765 248.335 296.836 246.346 302.034 262.211"/><path class="cls-2" d="M304.3894,265.8541l-13.2625,4.3453-.055-.1678a5.4324,5.4324,0,0,1,3.4706-6.8535l0,0,8.1-2.654Z"/><path class="cls-2" d="M293.6536,259.4812l-12.3387-20.5991-10.416-22.0077-9.3732,19.44-3.7234,25.1782-13.0582.1815.0515-.2042,19.983-79.4015,15.6505,2.3382-.7124,10.33.4242.6035c3.5354,5.0223,7.1909,10.2151,5.0943,15.8127l5.9435,17.6477,13.1562,29.3854Z"/><path class="cls-5" d="M265.4937,199.2773c-2.2678,0-4.8552-2.5894-3.5129-7.01l-.0869-.0629,3.224-14.2443c-2.8136-4.0239.896-7.3447,1.2436-7.6414l1.7708-3.1873,7.8128-4.9548,3.953,32.8448-.0585.056C276.9846,197.8087,267.396,199.2773,265.4937,199.2773Z"/><path class="cls-4" d="M281.4941,206.6887a3.8457,3.8457,0,0,1-.9229-.0977c-.3039-.0762-.7958-.4631-1.5559-2.9381-3.0219-9.8389-6.59-39.4434-3.9977-42.34l.0593-.0663,4.2561.7093a6.29,6.29,0,0,1,3.9234-1.3317,2.6,2.6,0,0,1,1.7791,1.0516l.0293.0384,1.3559,19.2893,4.9672,22.7-.1191.0541C290.98,203.8884,284.7773,206.6887,281.4941,206.6887Z"/><path class="cls-3" d="M278.6318,199.1494a3.3105,3.3105,0,0,0,3.1275-3.9984l6.23-4.2912-1.6843-4.4222-8.7133,6.1836a3.3284,3.3284,0,0,0,1.04,6.5282Z"/><path class="cls-4" d="M285.9338,194.2982l-5.55-4.07,7.8009-10.6374-5.9865-10.5642,2.6784-7.6586.173.33c.0806.1537,8.0752,15.3834,9.47,17.8241,1.4509,2.5388-8.0822,14.1644-8.4887,14.6578Z"/><path class="cls-6" d="M161.1013,242.176l-4.7232-1.9888-3.24-23.6774H109.99l-3.512,23.5807-4.2256,2.1128a1.0034,1.0034,0,0,0,.4488,1.9009h58.01a1.0034,1.0034,0,0,0,.3893-1.9282Z"/><path class="cls-7" d="M237.7776,219.66H25.8244a4.1992,4.1992,0,0,1-4.19-4.1992V185.5726H241.9674v29.8882A4.1994,4.1994,0,0,1,237.7776,219.66Z"/><path class="cls-4" d="M242.1889,199.6985H21.4411V71.8132a5.0679,5.0679,0,0,1,5.0622-5.062H237.1267a5.0678,5.0678,0,0,1,5.0622,5.062Z"/><path class="cls-8" d="M229.0046,190.4166H34.6255a3.9069,3.9069,0,0,1-3.9025-3.9025V79.9356a3.9071,3.9071,0,0,1,3.9025-3.9027H229.0046a3.9071,3.9071,0,0,1,3.9025,3.9027V186.5141A3.9069,3.9069,0,0,1,229.0046,190.4166Z"/><path class="cls-7" d="M186.3287,244.3512H77.1045a.5071.5071,0,0,1-.4982-.3669.4948.4948,0,0,1,.4782-.6211H186.2883a.5228.5228,0,0,1,.5231.3863.4946.4946,0,0,1-.4827.6017Z"/><rect class="cls-9" x="179.9975" y="93.2634" width="46.9319" height="35.8548"/><rect class="cls-8" x="182.3296" y="95.045" width="42.2678" height="32.2916"/><path class="cls-4" d="M204.2058,118.9973c.0056,0,.0111,0,.0168,0a11.2694,11.2694,0,0,0,.2521-22.492.2573.2573,0,0,0-.1946.0674.2547.2547,0,0,0-.0831.1863l-.2464,21.9783a.258.258,0,0,0,.2552.26Z"/><path class="cls-6" d="M195.3676,100.1393a.332.332,0,0,1,.233.0995l7.5662,7.7378a.3282.3282,0,0,1,.0942.2347l-.1179,10.5167a.3274.3274,0,0,1-.1069.24.3323.3323,0,0,1-.25.0866,11.343,11.343,0,0,1-7.671-18.8026.3319.3319,0,0,1,.24-.1121C195.3594,100.1393,195.3636,100.1392,195.3676,100.1393Z"/><path class="cls-5" d="M203.0614,96.4152a.3331.3331,0,0,1,.2264.0925.3271.3271,0,0,1,.1016.242l-.1063,9.4889a.33.33,0,0,1-.5666.2273l-6.6025-6.7522a.3311.3311,0,0,1,.0056-.4682l.0122-.0114a11.367,11.367,0,0,1,6.9091-2.8185C203.0477,96.4152,203.0546,96.4151,203.0614,96.4152Z"/><path class="cls-5" d="M199.66,123.5549a2.0241,2.0241,0,1,1-2.0013-2.0466h0A2.0263,2.0263,0,0,1,199.66,123.5549Z"/><path class="cls-4" d="M205.4428,123.62a2.0241,2.0241,0,1,1-2.0012-2.0466h0A2.0263,2.0263,0,0,1,205.4428,123.62Z"/><path class="cls-6" d="M211.2256,123.6846a2.0241,2.0241,0,1,1-2.0013-2.0467h0A2.0264,2.0264,0,0,1,211.2256,123.6846Z"/><rect class="cls-9" x="179.5035" y="134.7611" width="46.9319" height="35.8548"/><rect class="cls-8" x="181.8355" y="136.5427" width="42.2678" height="32.2916"/><circle class="cls-4" cx="189.0071" cy="145.4009" r="1.755"/><path class="cls-4" d="M217.2051,144.0352a1.19,1.19,0,1,1,.0043,2.38H198.7472a1.19,1.19,0,0,1,0-2.38h18.4579m0-.2915H198.7472a1.4817,1.4817,0,1,0-.0027,2.9634h18.4606a1.4817,1.4817,0,1,0,.0027-2.9634Z"/><path class="cls-5" d="M209.9219,146.7071H196.027a1.4817,1.4817,0,1,1-.0052-2.9634h13.9a1.4817,1.4817,0,0,1,0,2.9634Z"/><circle class="cls-4" cx="189.0071" cy="152.6885" r="1.755"/><path class="cls-4" d="M217.2051,151.3228a1.19,1.19,0,1,1,.0043,2.38H198.7472a1.19,1.19,0,0,1,0-2.38h18.4579m0-.2915H198.7472a1.4817,1.4817,0,0,0,0,2.9634h18.4579a1.4817,1.4817,0,0,0,0-2.9634Z"/><path class="cls-5" d="M215.169,153.9947H196.027a1.4817,1.4817,0,1,1-.0052-2.9634H215.169a1.4817,1.4817,0,0,1,0,2.9634Z"/><circle class="cls-4" cx="189.0071" cy="159.976" r="1.755"/><path class="cls-4" d="M217.2051,158.61a1.19,1.19,0,1,1,.0043,2.38H198.7472a1.19,1.19,0,1,1,0-2.38h18.4579m0-.2915H198.7472a1.4817,1.4817,0,1,0,0,2.9634h18.4579a1.4817,1.4817,0,1,0,0-2.9634Z"/><path class="cls-5" d="M203.8,161.2822H196.027a1.4817,1.4817,0,1,1-.0052-2.9634H203.8a1.4817,1.4817,0,0,1,0,2.9634Z"/><path class="cls-7" d="M326.1984,271.1336H202.8774a.3237.3237,0,0,1,0-.6474h123.321a.3237.3237,0,0,1,0,.6474Z"/><rect class="cls-4" x="52.7134" y="103.9273" width="0.3651" height="19.5321"/><rect class="cls-4" x="52.7134" y="129.2735" width="0.3651" height="17.1863"/><rect class="cls-4" x="52.1657" y="149.1979" width="28.2941" height="0.3651"/><rect class="cls-4" x="40.1179" y="154.1266" width="0.3651" height="15.5161"/><rect class="cls-4" x="43.4037" y="172.3808" width="42.8976" height="0.3651"/><rect class="cls-4" x="121.7145" y="91.5144" width="0.3651" height="18.4368"/><rect class="cls-4" x="92.1364" y="112.8719" width="26.84" height="0.3651"/><rect class="cls-4" x="89.0394" y="115.7926" width="0.3651" height="24.6433"/><path class="cls-4" d="M52.8959,129.4833a3.1033,3.1033,0,1,1,3.1032-3.1032A3.1032,3.1032,0,0,1,52.8959,129.4833Zm0-5.8414A2.7382,2.7382,0,1,0,55.634,126.38,2.7381,2.7381,0,0,0,52.8959,123.6419Z"/><path class="cls-4" d="M40.483,175.6666a3.1032,3.1032,0,1,1,3.1032-3.1032h0A3.1066,3.1066,0,0,1,40.483,175.6666Zm0-5.8414a2.7382,2.7382,0,1,0,2.7381,2.7382h0A2.7411,2.7411,0,0,0,40.483,169.8252Z"/><circle class="cls-5" cx="53.0784" cy="149.3805" r="2.9207"/><rect class="cls-4" x="128.4686" y="126.1975" width="30.3021" height="0.3651"/><rect class="cls-4" x="125.3654" y="129.2735" width="0.3651" height="17.1863"/><rect class="cls-4" x="98.1665" y="149.1979" width="24.2782" height="0.3651"/><rect class="cls-4" x="140.8815" y="150.8408" width="25.1909" height="0.3651"/><rect class="cls-4" x="137.9608" y="154.1266" width="0.3651" height="15.5161"/><rect class="cls-4" x="92.1426" y="172.3808" width="42.8976" height="0.3651"/><rect class="cls-4" x="89.0394" y="158.325" width="0.3651" height="11.3177"/><circle class="cls-5" cx="125.5479" cy="126.3801" r="2.9207"/><path class="cls-4" d="M121.8971,115.9751A3.1032,3.1032,0,1,1,125,112.8719,3.1032,3.1032,0,0,1,121.8971,115.9751Zm0-5.8414a2.7382,2.7382,0,1,0,2.7381,2.7382,2.7382,2.7382,0,0,0-2.7381-2.7382Z"/><path class="cls-4" d="M89.2219,115.9751a3.1032,3.1032,0,1,1,3.1032-3.1032A3.1031,3.1031,0,0,1,89.2219,115.9751Zm0-5.8414a2.7382,2.7382,0,1,0,2.7382,2.7382,2.7382,2.7382,0,0,0-2.7382-2.7382Z"/><path class="cls-4" d="M137.9608,154.3091a3.1033,3.1033,0,1,1,3.1033-3.1032h0A3.1068,3.1068,0,0,1,137.9608,154.3091Zm0-5.8414a2.7382,2.7382,0,1,0,2.7382,2.7382h0A2.7412,2.7412,0,0,0,137.9608,148.4677Z"/><circle class="cls-5" cx="137.9608" cy="172.5634" r="2.9207"/><path class="cls-4" d="M89.2219,175.6666a3.1032,3.1032,0,1,1,3.1032-3.1032h0A3.1066,3.1066,0,0,1,89.2219,175.6666Zm0-5.8414a2.7382,2.7382,0,1,0,2.7382,2.7382h0A2.7412,2.7412,0,0,0,89.2219,169.8252Z"/><path class="cls-4" d="M125.3654,152.4837a3.1033,3.1033,0,1,1,3.1032-3.1033h0A3.1067,3.1067,0,0,1,125.3654,152.4837Zm0-5.8414a2.7382,2.7382,0,1,0,2.7381,2.7381A2.7381,2.7381,0,0,0,125.3654,146.6423Z"/><path class="cls-4" d="M40.4829,144.9994a3.6509,3.6509,0,1,0,3.6509,3.6509A3.6509,3.6509,0,0,0,40.4829,144.9994Zm0,1.0953a1.0953,1.0953,0,1,1-1.0952,1.0953A1.0953,1.0953,0,0,1,40.4829,146.0947Zm0,5.2727a2.66,2.66,0,0,1-2.19-1.169c.0176-.73,1.46-1.1321,2.1905-1.1321s2.173.4019,2.1906,1.1321A2.6642,2.6642,0,0,1,40.4829,151.3674Z"/><path class="cls-4" d="M53.0784,95.1653a3.6509,3.6509,0,1,0,3.6508,3.6508A3.6509,3.6509,0,0,0,53.0784,95.1653Zm0,1.0952a1.0953,1.0953,0,1,1-1.0953,1.0953A1.0952,1.0952,0,0,1,53.0784,96.2605Zm0,5.2727a2.66,2.66,0,0,1-2.19-1.169c.0175-.73,1.46-1.1321,2.1905-1.1321s2.173.402,2.1905,1.1321A2.6641,2.6641,0,0,1,53.0784,101.5332Z"/><path class="cls-4" d="M121.897,82.57a3.6509,3.6509,0,1,0,3.6509,3.6509A3.6509,3.6509,0,0,0,121.897,82.57Zm0,1.0953a1.0953,1.0953,0,1,1-1.0952,1.0952A1.0952,1.0952,0,0,1,121.897,83.6651Zm0,5.2726a2.66,2.66,0,0,1-2.19-1.1689c.0176-.73,1.46-1.1321,2.1905-1.1321s2.173.4019,2.1905,1.1321A2.6637,2.6637,0,0,1,121.897,88.9377Z"/><path class="cls-4" d="M163.8819,122.5467a3.6509,3.6509,0,1,0,3.6508,3.6508A3.6509,3.6509,0,0,0,163.8819,122.5467Zm0,1.0952a1.0953,1.0953,0,1,1-1.0953,1.0953A1.0952,1.0952,0,0,1,163.8819,123.6419Zm0,5.2727a2.6594,2.6594,0,0,1-2.1905-1.169c.0175-.73,1.46-1.1321,2.1905-1.1321s2.1729.402,2.19,1.1321A2.6642,2.6642,0,0,1,163.8819,128.9146Z"/><path class="cls-4" d="M170.8185,147.19a3.6509,3.6509,0,1,0,3.6509,3.6508A3.6509,3.6509,0,0,0,170.8185,147.19Zm0,1.0952a1.0953,1.0953,0,1,1-1.0953,1.0953A1.0953,1.0953,0,0,1,170.8185,148.2852Zm0,5.2727a2.66,2.66,0,0,1-2.1905-1.169c.0175-.73,1.46-1.1321,2.1905-1.1321s2.1729.4019,2.19,1.1321A2.6641,2.6641,0,0,1,170.8185,153.5579Z"/><path class="cls-5" d="M89.4957,143.1752a5.4751,5.4751,0,1,0,5.4751,5.4751A5.4751,5.4751,0,0,0,89.4957,143.1752Zm0,1.6425a1.6426,1.6426,0,1,1-1.6425,1.6426A1.6426,1.6426,0,0,1,89.4957,144.8177Zm0,7.9073a3.9885,3.9885,0,0,1-3.285-1.7531c.0263-1.095,2.19-1.6978,3.285-1.6978s3.2587.6028,3.2851,1.6978A3.9951,3.9951,0,0,1,89.4957,152.725Z"/></g></g></svg>